<?xml version="1.0" standalone="no"?>
<!DOCTYPE svg PUBLIC "-//W3C//DTD SVG 1.1//EN" "http://www.w3.org/Graphics/SVG/1.1/DTD/svg11.dtd" >
<svg xmlns="http://www.w3.org/2000/svg" xmlns:xlink="http://www.w3.org/1999/xlink" version="1.1">
<metadata></metadata>
<defs>
<font id="new_yorkregular" horiz-adv-x="1365" >
<font-face units-per-em="2048" ascent="1638" descent="-410" />
<missing-glyph horiz-adv-x="683" />
<glyph horiz-adv-x="0" />
<glyph unicode="&#xd;" horiz-adv-x="683" />
<glyph unicode=" "  horiz-adv-x="683" />
<glyph unicode="&#x09;" horiz-adv-x="683" />
<glyph unicode="&#xa0;" horiz-adv-x="683" />
<glyph unicode="!" horiz-adv-x="621" d="M178 85q0 55 38.5 93.5t93.5 38.5q54 0 93 -38.5t39 -93.5q0 -54 -39 -93t-93 -39t-93 39t-39 93zM184 1550l248 48l-92 -1210h-60z" />
<glyph unicode="&#x22;" horiz-adv-x="1024" d="M186 1614h218l-72 -621h-66zM625 1614h213l-75 -621h-65z" />
<glyph unicode="#" d="M62 442v93h290l120 458h-264v93h290l124 466h93l-123 -466h414l123 466h96l-125 -466h264v-93h-289l-123 -458h264v-93h-288l-117 -442h-96l116 442h-412l-117 -442h-94l118 442h-264zM445 535h411l125 458h-414z" />
<glyph unicode="$" d="M225 403h78l3 -18q23 -138 92 -207q116 -117 263 -117q8 0 29 1v627l-112 71q-212 131 -278.5 207t-66.5 185q0 164 121.5 270t335.5 128v157h78v-157q202 0 381 -62l35 -301h-82l-5 17q-69 254 -329 284v-609l106 -65q195 -120 261.5 -200.5t66.5 -196.5 q0 -167 -112.5 -272t-321.5 -135v-165h-78v155h-42q-190 0 -400 62zM434 1213q0 -123 206 -252l50 -31v558q-116 -19 -186 -94t-70 -181zM768 76q233 84 233 288q0 127 -183 243l-50 32v-563z" />
<glyph unicode="%" horiz-adv-x="1808" d="M47 1090q0 206 98.5 335.5t254.5 129.5t254.5 -129.5t98.5 -335.5t-98.5 -336t-254.5 -130t-254.5 130t-98.5 336zM210 1090q0 -187 51 -295t139 -108t139 108t51 295t-51 295t-139 108t-139 -108t-51 -295zM273 0l1114 1552h131l-1110 -1552h-135zM1055 465 q0 206 98.5 336t254.5 130q157 0 255 -130t98 -336q0 -205 -98 -335t-255 -130q-156 0 -254.5 130t-98.5 335zM1218 465q0 -187 51 -295t139 -108q89 0 140 108t51 295t-51 295.5t-140 108.5q-88 0 -139 -108t-51 -296z" />
<glyph unicode="&#x26;" horiz-adv-x="1738" d="M78 418q0 169 111.5 315t320.5 249q-75 180 -75 284q0 144 102 238t258 94q137 0 230 -74.5t93 -185.5q0 -221 -396 -356q169 -390 383 -646q144 201 144 317q0 57 -36.5 94t-94.5 37h-13l43 124h544l-62 -163h-223q-66 -242 -259 -450q203 -217 321 -217q72 0 161 33 v-56q-151 -102 -295 -102q-145 0 -321 190q-207 -190 -437 -190q-218 0 -358.5 131.5t-140.5 333.5zM280 491q0 -181 116.5 -309t282.5 -128q145 0 293 133q-275 304 -441 735q-251 -150 -251 -431zM636 1327q0 -88 59 -264q1 -5 7 -23q245 118 245 319q0 76 -43 126.5 t-106 50.5q-68 0 -115 -61t-47 -148z" />
<glyph unicode="'" horiz-adv-x="621" d="M171 1614h279l-102 -621h-72z" />
<glyph unicode="(" horiz-adv-x="915" d="M202 636q0 309 144 601.5t352 407.5v-74q-294 -240 -294 -935q0 -694 294 -935v-73q-208 114 -352 406.5t-144 601.5z" />
<glyph unicode=")" horiz-adv-x="915" d="M202 -299q295 241 295 935q0 695 -295 935v74q209 -115 352.5 -407.5t143.5 -601.5t-143.5 -601.5t-352.5 -406.5v73z" />
<glyph unicode="*" horiz-adv-x="1040" d="M78 1204l42 150l367 -164l-45 408h156l-44 -408l366 164l42 -150l-388 -71l249 -301l-127 -82l-176 352l-175 -352l-128 82l250 301z" />
<glyph unicode="+" d="M124 504v109h504v504h109v-504h504v-109h-504v-504h-109v504h-504z" />
<glyph unicode="," horiz-adv-x="621" d="M155 94q22 170 169 170q67 0 110 -51t43 -130q0 -261 -322 -455v66q156 99 169 314z" />
<glyph unicode="-" horiz-adv-x="776" d="M78 559v139h621v-139h-621z" />
<glyph unicode="." horiz-adv-x="621" d="M155 109q0 64 45.5 109.5t109.5 45.5t109.5 -45.5t45.5 -109.5q0 -65 -45.5 -110.5t-109.5 -45.5t-109.5 45.5t-45.5 110.5z" />
<glyph unicode="/" horiz-adv-x="1195" d="M62 -47l942 1645h129l-944 -1645h-127z" />
<glyph unicode="0" d="M93 776q0 372 161.5 597t428.5 225q266 0 427.5 -225t161.5 -597t-161.5 -597.5t-427.5 -225.5q-267 0 -428.5 225.5t-161.5 597.5zM310 776q0 -380 93.5 -570t279.5 -190t279 190t93 570t-93 570t-279 190t-279.5 -190t-93.5 -570z" />
<glyph unicode="1" d="M287 0v62q200 0 255 27.5t55 126.5v1183l-310 -53v62l496 190v-1382q0 -99 55.5 -126.5t249.5 -27.5h2h2h2v-62h-807z" />
<glyph unicode="2" d="M163 0v73q365 404 555 704t190 462q0 116 -74 185t-199 69q-195 0 -432 -198l7 131q207 172 451 172q204 0 326 -100.5t122 -268.5q0 -149 -116 -311.5t-624 -723.5h779v-194h-985z" />
<glyph unicode="3" d="M147 132l134 136q142 -237 358 -237q140 0 227.5 98t87.5 256q0 188 -127 281.5t-382 93.5h-44l60 155h38q154 0 269.5 99t115.5 229q0 112 -83 191t-200 79q-167 0 -345 -126v95q197 116 405 116q185 0 297 -87t112 -231q0 -125 -92 -220t-277 -160q213 -38 326 -149.5 t113 -284.5q0 -202 -165.5 -357.5t-381.5 -155.5q-285 0 -446 179z" />
<glyph unicode="4" d="M85 450v163l885 985h61v-985h264v-163h-264v-450h-186v450h-760zM174 613h671v751z" />
<glyph unicode="5" d="M163 112l140 139q121 -228 336 -228q135 0 225 105t90 263q0 222 -178.5 357.5t-470.5 135.5h-28l104 668h728v-179h-659l-51 -318l34 1q136 0 293.5 -61.5t248.5 -148.5q166 -160 166 -381q0 -211 -166.5 -361.5t-398.5 -150.5q-250 0 -413 159z" />
<glyph unicode="6" d="M140 700q0 390 228 644t578 254q60 0 125 -11v-83q-46 16 -101 16q-258 0 -419 -170q-92 -97 -150.5 -270.5t-58.5 -347.5q0 -51 10 -120q64 158 188.5 250t274.5 92q186 0 306.5 -130.5t120.5 -333.5q0 -225 -155 -381t-377 -156q-252 0 -411 208.5t-159 538.5zM403 441 q0 -178 100 -298t249 -120q140 0 225.5 112t85.5 294q0 179 -90 290t-234 111q-154 0 -245 -105t-91 -284z" />
<glyph unicode="7" d="M163 1365v187h1032v-59q-248 -399 -376 -734t-196 -759h-217q102 497 635 1365h-878z" />
<glyph unicode="8" d="M178 372q0 274 339 478q-146 99 -204 180t-58 188q0 168 127.5 274t328.5 106q187 0 304 -92.5t117 -239.5q0 -108 -84 -210.5t-231 -172.5q239 -166 316 -261.5t77 -227.5q0 -182 -161 -311.5t-389 -129.5q-208 0 -345 119t-137 300zM364 427q0 -163 111.5 -276 t273.5 -113q117 0 199.5 84.5t82.5 203.5q0 111 -81.5 207.5t-284.5 225.5l-87 56q-214 -139 -214 -388zM418 1286q0 -154 264 -319l75 -47q205 114 205 298q0 132 -85 225t-205 93q-106 0 -180 -73t-74 -177z" />
<glyph unicode="9" d="M124 1062q0 224 154.5 380t377.5 156q252 0 411 -208.5t159 -538.5q0 -389 -228.5 -643.5t-577.5 -254.5q-60 0 -125 11v84q45 -17 101 -17q257 0 419 171q91 96 150 270t59 348q0 50 -11 119q-63 -157 -188 -249.5t-275 -92.5q-186 0 -306 131t-120 334zM302 1122 q0 -178 90 -289.5t235 -111.5q154 0 244.5 105.5t90.5 283.5t-100 298t-248 120q-140 0 -226 -111.5t-86 -294.5z" />
<glyph unicode=":" horiz-adv-x="621" d="M155 109q0 64 45.5 109.5t109.5 45.5t109.5 -45.5t45.5 -109.5q0 -65 -45.5 -110.5t-109.5 -45.5t-109.5 45.5t-45.5 110.5zM155 993q0 64 45.5 109.5t109.5 45.5t109.5 -45.5t45.5 -109.5t-45.5 -109.5t-109.5 -45.5t-109.5 45.5t-45.5 109.5z" />
<glyph unicode=";" horiz-adv-x="621" d="M155 94q22 170 169 170q67 0 110 -51t43 -130q0 -261 -322 -455v66q156 99 169 314zM155 993q0 64 45.5 109.5t109.5 45.5t109.5 -45.5t45.5 -109.5t-45.5 -109.5t-109.5 -45.5t-109.5 45.5t-45.5 109.5z" />
<glyph unicode="&#x3c;" d="M124 559l1117 558v-114l-883 -444l883 -434v-125z" />
<glyph unicode="=" d="M124 349v109h1117v-109h-1117zM124 659v109h1117v-109h-1117z" />
<glyph unicode="&#x3e;" d="M124 0v115l883 444l-883 433v125l1117 -558z" />
<glyph unicode="?" horiz-adv-x="931" d="M62 1447q183 151 426 151q145 0 247.5 -78.5t102.5 -188.5q0 -132 -141 -287l-33 -36q-119 -131 -155 -227.5t-36 -286.5v-98h-186v78q0 118 29 185.5t146 225.5l41 55q133 178 133 328q8 120 -62.5 178.5t-182.5 58.5q-129 0 -297 -108zM249 85q0 55 38.5 93.5 t93.5 38.5t93.5 -38.5t38.5 -93.5q0 -54 -38.5 -93t-93.5 -39q-54 0 -93 39t-39 93z" />
<glyph unicode="@" horiz-adv-x="1707" d="M85 775q0 366 220 594.5t571 228.5q333 0 539 -198.5t206 -518.5q0 -196 -113 -329t-278 -133q-109 0 -172.5 50t-80.5 149q-60 -92 -129 -138t-146 -46q-113 0 -190.5 97t-77.5 237q0 198 125 324q117 118 383 118h190v-436q0 -127 41.5 -190.5t124.5 -63.5 q105 0 175.5 100t70.5 250q0 292 -182 471.5t-477 179.5q-379 0 -561 -253q-154 -212 -154 -492q0 -319 191 -528t482 -209q189 0 375 101v-95q-163 -92 -374 -92q-329 0 -544 233t-215 589zM597 782q0 -123 41.5 -185t123.5 -62q47 0 100.5 46t114.5 138v429h-56 q-162 0 -243 -91.5t-81 -274.5z" />
<glyph unicode="A" horiz-adv-x="1552" d="M0 0v62h16q60 0 99 42.5t87 160.5l548 1333h63l567 -1333q53 -124 84 -163.5t75 -39.5h13v-62h-458v62h17q61 0 82 12t21 47q0 29 -48 144l-94 224h-674l-95 -231q-41 -98 -41 -124q0 -61 103 -70l16 -2v-62h-381zM427 566h606l-310 732z" />
<glyph unicode="B" horiz-adv-x="1311" d="M78 0v62h20q102 0 134 38.5t32 162.5v1023q0 126 -32 164.5t-134 38.5h-20v63h551q200 0 276 -12t136 -52q115 -78 115 -222q0 -134 -86 -237t-259 -175q187 -48 293.5 -164t106.5 -272q0 -193 -139 -305.5t-377 -112.5h-617zM466 264q0 -202 270 -202q124 0 206 86.5 t82 217.5q0 187 -150.5 314t-371.5 127h-36v-543zM466 869h192q100 0 212 114q93 95 93 234q0 136 -95.5 204t-287.5 68h-114v-620z" />
<glyph unicode="C" horiz-adv-x="1451" d="M85 778q0 371 206 595.5t545 224.5q251 0 464 -63l31 -309h-75l-3 18q-24 139 -130.5 215.5t-276.5 76.5q-234 0 -385 -213t-151 -544q0 -343 154.5 -554t404.5 -211q337 0 392 303l3 17h78l-28 -301q-249 -80 -462 -80q-353 0 -560 223t-207 602z" />
<glyph unicode="D" horiz-adv-x="1660" d="M85 0v62h20q102 0 134 38.5t32 162.5v1023q0 126 -32 164.5t-134 38.5h-20v63h577q296 -6 418 -37.5t261 -128.5q233 -180 233 -549q0 -354 -211 -605q-112 -132 -262.5 -182t-438.5 -50h-577zM473 263q0 -193 333 -193q248 0 396 188.5t148 504.5q0 310 -178 515 q-105 120 -232.5 165.5t-360.5 45.5h-106v-1226z" />
<glyph unicode="E" horiz-adv-x="1241" d="M78 0v62h18q100 0 134 40.5t34 161.5v1021q0 128 -31.5 166t-136.5 38h-18v63h1024l31 -288h-78l-3 21q-19 131 -75.5 160t-295.5 29h-215v-628h232q160 0 204.5 27.5t44.5 125.5v17h77v-403h-77v15q0 88 -37 126q-30 30 -212 30h-232v-527q0 -100 84.5 -139.5 t297.5 -39.5h42q93 0 137.5 47t63.5 166l3 19h78l-31 -338q-191 13 -284 13q-99 0 -233 8q-131 7 -158 7h-388z" />
<glyph unicode="F" horiz-adv-x="1202" d="M78 0v62h18q104 0 136 39t32 163v1021q0 128 -31.5 166t-136.5 38h-18v63h1024l31 -288h-78l-3 21q-19 131 -75.5 160t-295.5 29h-215v-659h237q156 0 200 27.5t44 125.5v17h77v-403h-77v15q0 88 -37 126q-28 29 -207 29h-237v-488q0 -130 37 -166t172 -36h16v-62h-613z " />
<glyph unicode="G" horiz-adv-x="1583" d="M85 777q0 369 204.5 595t539.5 226q265 0 475 -63l30 -309h-78l-3 17q-2 74 -69 168q-116 125 -338 125q-242 0 -391 -212t-149 -558q0 -343 165.5 -527.5t472.5 -184.5q78 0 204 20v354q0 123 -32.5 161.5t-135.5 38.5h-18v62h558v-62h-14q-106 0 -139 -38.5t-33 -161.5 v-388q-253 -87 -473 -87q-407 0 -605 265q-171 230 -171 559z" />
<glyph unicode="H" horiz-adv-x="1637" d="M78 0v62h16q105 0 137.5 38.5t32.5 163.5v1024q0 124 -32.5 162.5t-137.5 38.5h-16v63h574v-63h-15q-105 0 -138 -38.5t-33 -162.5v-435h706v435q0 124 -33 162.5t-138 38.5h-15v63h574v-63h-16q-105 0 -137.5 -38.5t-32.5 -162.5v-1024q0 -125 32.5 -163.5t137.5 -38.5 h16v-62h-574v62h15q105 0 138 39t33 163v512h-706v-512q0 -124 33 -163t138 -39h15v-62h-574z" />
<glyph unicode="I" horiz-adv-x="729" d="M78 0v62h16q105 0 137.5 38.5t32.5 163.5v1024q0 124 -32.5 162.5t-137.5 38.5h-16v63h574v-63h-15q-105 0 -138 -38.5t-33 -162.5v-1024q0 -124 33 -163t138 -39h15v-62h-574z" />
<glyph unicode="J" horiz-adv-x="946" d="M0 -47h78l3 -15l9 -80q10 -66 55 -107q59 -54 145 -54q110 0 158 94.5t48 309.5v1187q0 124 -32.5 162.5t-137.5 38.5h-16v63h574v-63h-16q-105 0 -137.5 -38.5t-32.5 -162.5v-1093q0 -206 -19.5 -296.5t-79.5 -155.5q-104 -115 -302 -115q-176 0 -297 67v258z" />
<glyph unicode="K" horiz-adv-x="1505" d="M78 0v62h19q103 0 135 39t32 163v1024q0 124 -32 162.5t-135 38.5h-19v63h574v-63h-16q-105 0 -137.5 -38.5t-32.5 -162.5v-472l463 473q119 120 119 152q0 48 -87 48h-14v63h411v-63h-17q-102 0 -297 -200l-409 -417l570 -610q109 -116 168.5 -158t115.5 -42h16v-62 h-316l-723 779v-515q0 -124 32.5 -163t137.5 -39h16v-62h-574z" />
<glyph unicode="L" horiz-adv-x="1195" d="M78 0v62h18q104 0 136 39t32 165v1022q0 124 -32.5 162.5t-135.5 38.5h-18v63h574v-63h-17q-104 0 -136.5 -38.5t-32.5 -162.5v-1022q0 -101 73 -137t278 -36h49q123 0 158 48q51 71 67 185l3 23h78l-36 -370q-344 21 -670 21h-388z" />
<glyph unicode="M" horiz-adv-x="1994" d="M78 0v62h14q106 0 139 39t33 163v1024q0 124 -33 162.5t-139 38.5h-14v63h361l576 -1115l529 1115h373v-63h-16q-105 0 -138 -38.5t-33 -162.5v-985q0 -164 33 -202.5t138 -38.5h16v-62h-559v62h12q107 0 140.5 38.5t33.5 163.5v1127l-592 -1239l-587 1136v-1024 q0 -124 33 -163t139 -39h14v-62h-473z" />
<glyph unicode="N" horiz-adv-x="1645" d="M78 1489v63h297l929 -1141v877q0 124 -32.5 162.5t-137.5 38.5h-16v63h480v-63h-18q-103 0 -135.5 -38.5t-32.5 -162.5v-1335l-1008 1252v-941q0 -125 32 -163.5t136 -38.5h18v-62h-481v62h12q103 0 134.5 38.5t31.5 163.5v1068l-30 41q-87 116 -161 116h-18z" />
<glyph unicode="O" horiz-adv-x="1645" d="M85 776q0 361 206.5 591.5t530.5 230.5q293 0 479 -176q119 -112 188.5 -286t69.5 -360q0 -361 -206.5 -592t-530.5 -231t-530.5 231t-206.5 592zM318 776q0 -333 141.5 -546.5t362.5 -213.5q220 0 362 213.5t142 546.5q0 332 -142 546t-362 214t-362 -214t-142 -546z " />
<glyph unicode="P" horiz-adv-x="1241" d="M78 0v62h16q105 0 137.5 39t32.5 164v1023q0 124 -32.5 162.5t-137.5 38.5h-16v63h585q184 0 265 -18t142 -72q117 -104 117 -292q0 -242 -173 -384t-468 -142h-80v-379q0 -130 30.5 -166.5t140.5 -36.5h46v-62h-605zM466 706h58q223 0 334.5 109t111.5 326 q0 189 -91 268.5t-309 79.5h-104v-783z" />
<glyph unicode="Q" horiz-adv-x="1645" d="M85 776q0 361 206.5 591.5t530.5 230.5t530.5 -230.5t206.5 -592.5q0 -327 -176 -552t-463 -262q203 -89 391.5 -133.5t362.5 -44.5q169 0 366 59v-59q-197 -156 -443 -156q-170 0 -395 94.5t-382 231.5q-293 29 -434 140q-137 108 -219 294t-82 389zM318 776 q0 -333 142 -546.5t362 -213.5q221 0 362.5 213.5t141.5 546.5q0 332 -141.5 546t-362.5 214q-220 0 -362 -214t-142 -546z" />
<glyph unicode="R" horiz-adv-x="1420" d="M78 0v62h15q106 0 138.5 38.5t32.5 163.5v1024q0 124 -32.5 162.5t-138.5 38.5h-15v63h587q278 0 392.5 -71t114.5 -244q0 -162 -91.5 -275.5t-275.5 -179.5q65 -40 103.5 -86t140.5 -207l101 -163q106 -166 152 -215t98 -49h12v-62h-300l-447 737h-199v-473 q0 -124 32.5 -163t136.5 -39h9v-62h-566zM466 799h225q129 39 200 143t71 253q0 154 -97.5 224t-312.5 70h-86v-690z" />
<glyph unicode="S" horiz-adv-x="1171" d="M85 357h78l3 -16q30 -156 125 -240.5t241 -84.5q132 0 226.5 89.5t94.5 215.5q0 159 -243 325l-154 106q-224 154 -293.5 239.5t-69.5 206.5q0 180 145.5 290t383.5 110q186 0 379 -66l33 -291h-80l-5 16q-80 279 -366 279q-128 0 -212 -77t-84 -195q0 -149 208 -292 l222 -152q208 -143 273 -227.5t65 -211.5q0 -196 -149.5 -312t-401.5 -116q-210 0 -397 63z" />
<glyph unicode="T" horiz-adv-x="1443" d="M39 1218l38 361q259 -27 540 -27h209q281 0 540 27l38 -361h-81l-4 20q-21 140 -89 188t-246 48h-158v-1211q0 -125 38.5 -163t163.5 -38h15v-62h-643v62h15q126 0 164 38t38 163v1211h-158q-178 0 -246 -48t-89 -188l-3 -20h-82z" />
<glyph unicode="U" horiz-adv-x="1598" d="M54 1489v63h573v-63h-16q-105 0 -138 -38.5t-33 -162.5v-697q0 -320 112 -447q112 -128 307 -128q176 0 274 122t100 405v745q0 124 -32.5 162.5t-138.5 38.5h-15v63h496v-63h-13q-106 0 -139.5 -38.5t-33.5 -162.5v-663q0 -243 -27.5 -345t-116.5 -186 q-149 -141 -431 -141q-240 0 -381 112q-97 77 -129.5 183.5t-32.5 342.5v697q0 124 -33 162.5t-138 38.5h-14z" />
<glyph unicode="V" horiz-adv-x="1552" d="M0 1489v63h458v-63h-18q-60 0 -81 -12t-21 -47q0 -32 48 -143l442 -1030l421 1036q41 100 41 125q0 60 -103 70l-17 1v63h382v-63h-17q-59 0 -98 -42.5t-88 -159.5l-548 -1334h-62l-568 1334q-86 202 -158 202h-13z" />
<glyph unicode="W" horiz-adv-x="2110" d="M0 1489v63h496v-63h-19q-72 0 -96 -18.5t-24 -73.5q0 -52 20 -120l289 -972l383 1247h63l447 -1252l285 976q24 84 24 136q0 66 -119 76l-19 1v63h380v-63h-17q-51 0 -84 -45.5t-68 -164.5l-389 -1326h-65l-458 1264l-390 -1264h-67l-397 1329q-34 113 -70.5 160 t-89.5 47h-15z" />
<glyph unicode="X" horiz-adv-x="1334" d="M0 0v62h15q62 0 113.5 43.5t124.5 158.5l323 506l-324 521q-123 198 -196 198h-17v63h520v-63h-22q-103 0 -103 -62q0 -46 56 -139l199 -336l203 336q86 147 86 167q0 34 -72 34h-14v63h334v-63h-21q-86 0 -212 -200l-259 -414l370 -613q121 -200 213 -200h17v-62h-496 v62h13q95 0 95 52q0 37 -64 145l-259 435l-270 -430q-74 -118 -74 -151q0 -51 115 -51h17v-62h-411z" />
<glyph unicode="Y" horiz-adv-x="1319" d="M0 1489v63h496v-63h-21q-72 0 -72 -49q0 -47 60 -150l271 -472l259 476q56 102 56 135q0 53 -82 59l-23 1v63h375v-63h-22q-75 0 -112 -33.5t-110 -166.5l-307 -561v-464q0 -126 38 -164t162 -38h16v-62h-634v62h16q124 0 162 38t38 164v464l-330 562q-117 199 -221 199 h-15z" />
<glyph unicode="Z" horiz-adv-x="1226" d="M85 0v62l789 1427h-206q-272 0 -358 -37q-50 -21 -66.5 -53.5t-31.5 -135.5l-3 -22h-77v341l869 -30h100v-63l-786 -1427h275q329 0 385 59q47 51 77 204l3 16h77l-23 -370q-441 29 -835 29h-189z" />
<glyph unicode="[" horiz-adv-x="838" d="M264 -372v2017h496v-78h-341v-1862h341v-77h-496z" />
<glyph unicode="\" horiz-adv-x="1195" d="M62 1598h129l942 -1645h-127z" />
<glyph unicode="]" horiz-adv-x="838" d="M78 -295h341v1862h-341v78h496v-2017h-496v77z" />
<glyph unicode="^" d="M124 434l559 1118l558 -1118h-120l-438 871l-436 -871h-123z" />
<glyph unicode="_" d="M62 0h1241v-124h-1241v124z" />
<glyph unicode="`" horiz-adv-x="1303" d="M357 1614h219l293 -326h-86z" />
<glyph unicode="a" horiz-adv-x="1210" d="M124 231q0 125 116 212.5t383 163.5l137 40v157q0 103 -12 143.5t-52 68.5q-61 45 -150 45q-92 0 -138 -39t-46 -118v-50l-215 -69v30q0 120 139 228q137 105 341 105q169 0 244 -69q75 -70 75 -226v-474q0 -181 32 -241t127 -60q30 0 66 5v-59q-98 -55 -195 -55 q-84 0 -134.5 57t-66.5 171q-88 -114 -186.5 -171t-208.5 -57t-183 74.5t-73 187.5zM326 263q0 -72 49.5 -125t116.5 -53q112 0 207 105q61 69 61 191v200l-57 -18q-232 -73 -304.5 -131.5t-72.5 -168.5z" />
<glyph unicode="b" horiz-adv-x="1373" d="M16 1489v16l372 138v-703q112 104 217.5 156t204.5 52q202 0 332.5 -156.5t130.5 -397.5q0 -276 -171.5 -450.5t-443.5 -174.5q-85 0 -169.5 15t-168.5 44l-118 -65v1241q0 144 -19.5 183t-109.5 78zM388 197q59 -72 147.5 -116t173.5 -44q158 0 260 135t102 344 q0 208 -103 338.5t-266 130.5q-74 0 -152.5 -32.5t-161.5 -97.5v-658z" />
<glyph unicode="c" horiz-adv-x="1109" d="M82 530q0 270 173 444t442 174q212 0 374 -127l-141 -152q-132 209 -313 209q-146 0 -232 -131t-86 -352q0 -244 112.5 -381.5t312.5 -137.5q166 0 307 64v-97q-193 -74 -378 -74q-254 0 -412.5 155.5t-158.5 405.5z" />
<glyph unicode="d" horiz-adv-x="1420" d="M101 523q0 278 172 451.5t447 173.5q63 0 129 -8.5t136 -25.5v200q0 63 -22.5 88.5t-111.5 62.5l-60 24v16l381 140v-1384q0 -80 37 -109t141 -29h8v-60l-373 -98v212q-112 -104 -217 -156t-204 -52q-202 0 -332.5 156.5t-130.5 397.5zM303 601q0 -208 102.5 -338.5 t266.5 -130.5q74 0 152.5 32.5t160.5 97.5v658q-58 72 -146.5 116t-173.5 44q-158 0 -260 -135t-102 -344z" />
<glyph unicode="e" horiz-adv-x="1171" d="M85 558q0 254 153.5 422t384.5 168q208 0 323.5 -137t115.5 -382v-32h-766q-1 -34 -1 -47q0 -194 123 -325.5t305 -131.5q174 0 355 95v-94q-219 -125 -425 -125q-248 0 -408 166t-160 423zM300 659h207q224 0 283.5 22.5t59.5 107.5q0 131 -65 214t-167 83 q-126 0 -212.5 -115.5t-105.5 -311.5z" />
<glyph unicode="f" horiz-adv-x="822" d="M47 0v62h20q103 0 134.5 38.5t31.5 163.5v776h-186v77h186v102q0 213 102 319.5t305 106.5q191 0 286 -99l-141 -156q-74 193 -210 193q-78 0 -117 -70t-39 -211v-185h318v-77h-318v-776q0 -125 38.5 -163.5t164.5 -38.5h15v-62h-590z" />
<glyph unicode="g" horiz-adv-x="1233" d="M93 -149l228 149q-76 58 -100 94.5t-32 105.5l250 172q-132 34 -210 136t-78 239q0 179 115.5 289.5t302.5 110.5q107 0 201 -31h401v-93h-251q100 -133 100 -267q0 -187 -117.5 -293.5t-324.5 -106.5h-50q-117 -68 -117 -119q0 -82 223 -82h230q292 0 292 -238 q0 -172 -153 -277t-405 -105q-239 0 -365.5 79t-139.5 237zM310 -184q0 -97 87.5 -158.5t225.5 -61.5q148 0 247.5 72.5t99.5 179.5q0 85 -55 118.5t-192 33.5h-325q-88 -78 -88 -184zM354 752q0 -155 62.5 -244t170.5 -89t170.5 89t62.5 244q0 156 -62.5 245t-170.5 89 t-170.5 -89t-62.5 -245z" />
<glyph unicode="h" horiz-adv-x="1427" d="M78 0v62h18q103 0 135.5 38.5t32.5 163.5v940q0 143 -19.5 183t-109.5 78l-57 24v16l372 140v-729q120 116 227.5 174t201.5 58q136 0 225 -93q91 -95 91 -346v-445q0 -125 33 -163.5t139 -38.5h14v-62h-558v62h16q105 0 137.5 39t32.5 163v449q0 148 -48.5 214 t-158.5 66q-80 0 -168 -34.5t-184 -104.5v-590q0 -125 33.5 -163.5t140.5 -38.5h13v-62h-559z" />
<glyph unicode="i" horiz-adv-x="698" d="M78 0v62h20q102 0 134 38.5t32 163.5v439q0 151 -17.5 185.5t-116.5 79.5l-52 25v15l372 135v-879q0 -124 33 -163t138 -39h16v-62h-559zM192 1420q0 55 38 93.5t94 38.5t94 -38.5t38 -93.5q0 -56 -38 -94t-94 -38t-94 38t-38 94z" />
<glyph unicode="j" horiz-adv-x="690" d="M8 -392q186 81 242.5 177.5t56.5 334.5v590q0 142 -20.5 181t-114.5 77l-59 25v15l380 139v-1032q0 -186 -37 -282.5t-133 -160.5q-154 -102 -315 -137v73zM272 1420q0 55 38 93.5t94 38.5q55 0 93.5 -38.5t38.5 -93.5q0 -56 -38.5 -94t-93.5 -38q-56 0 -94 38t-38 94z " />
<glyph unicode="k" horiz-adv-x="1280" d="M70 0v62h18q104 0 136 38.5t32 163.5v945q0 138 -20.5 179.5t-105.5 76.5l-60 24v16l372 140v-1017l301 255q134 113 134 142.5t-86 29.5h-15v62h396v-62h-17q-73 0 -298 -186l-222 -184l371 -420q180 -203 260 -203h14v-62h-277l-561 629v-365q0 -124 34 -163t142 -39 h11v-62h-559z" />
<glyph unicode="l" horiz-adv-x="698" d="M62 0v62h18q104 0 136 38.5t32 163.5v940q0 144 -19.5 183t-109.5 78l-57 24v16l372 140v-1381q0 -125 33.5 -163.5t140.5 -38.5h13v-62h-559z" />
<glyph unicode="m" horiz-adv-x="2048" d="M78 0v62h17q104 0 136.5 38.5t32.5 163.5v463q0 127 -20.5 165.5t-108.5 75.5l-57 25v15l372 140v-219q119 110 216 164.5t173 54.5q109 0 185 -62.5t97 -170.5q123 117 226 175t186 58q141 0 219 -112q64 -91 64 -324v-448q0 -124 32.5 -163t137.5 -39h16v-62h-559v62 h19q103 0 135.5 39t32.5 163v466q0 136 -45 199.5t-142 63.5q-72 0 -149.5 -35t-160.5 -105v-589q0 -125 33.5 -163.5t139.5 -38.5h13v-62h-558v62h17q104 0 136.5 38.5t32.5 163.5v470q0 137 -43 198t-140 61q-66 0 -144.5 -35t-169.5 -105v-589q0 -125 33.5 -163.5 t140.5 -38.5h13v-62h-559z" />
<glyph unicode="n" horiz-adv-x="1427" d="M78 0v62h18q103 0 135.5 38.5t32.5 163.5v450q0 138 -20 177t-109 77l-57 25v15l372 139v-231q120 116 227.5 174t201.5 58q136 0 225 -93q91 -95 91 -346v-445q0 -125 33 -163.5t139 -38.5h14v-62h-558v62h16q105 0 137.5 39t32.5 163v449q0 148 -48.5 214t-158.5 66 q-80 0 -168 -34.5t-184 -104.5v-590q0 -125 33.5 -163.5t140.5 -38.5h13v-62h-559z" />
<glyph unicode="o" horiz-adv-x="1303" d="M85 559q0 257 159.5 423t406.5 166q248 0 407.5 -166t159.5 -423q0 -258 -159.5 -424t-407.5 -166q-247 0 -406.5 166t-159.5 424zM310 559q0 -234 94 -377t247 -143q154 0 248 143t94 377q0 233 -94 376t-248 143q-153 0 -247 -143t-94 -376z" />
<glyph unicode="p" horiz-adv-x="1412" d="M54 -372h9q109 0 143 38.5t34 162.5v880q0 141 -20 182.5t-106 76.5l-60 25v15l372 140v-208q112 104 217.5 156t204.5 52q202 0 332.5 -156.5t130.5 -397.5q0 -278 -172.5 -451.5t-449.5 -173.5q-64 0 -130 9.5t-133 28.5v-178q0 -124 33.5 -162.5t140.5 -38.5h13v-62 h-559v62zM426 197q59 -72 147.5 -116t173.5 -44q158 0 260 135t102 344q0 208 -103 338.5t-266 130.5q-74 0 -152.5 -32.5t-161.5 -97.5v-658z" />
<glyph unicode="q" d="M101 523q0 274 171 449.5t437 175.5q90 0 175 -14.5t165 -43.5l123 58v-1319q0 -124 33 -162.5t140 -38.5h13v-62h-559v62h18q104 0 136 38.5t32 162.5v348q-112 -104 -217 -156t-204 -52q-202 0 -332.5 156.5t-130.5 397.5zM303 601q0 -208 102.5 -338.5t266.5 -130.5 q74 0 152.5 32.5t160.5 97.5l2 658q-68 80 -149 120t-174 40q-157 0 -259 -135t-102 -344z" />
<glyph unicode="r" horiz-adv-x="1008" d="M78 0v62h18q109 0 142.5 38.5t33.5 163.5v439q0 148 -20 187.5t-114 77.5l-60 25v15l380 135v-220q105 113 192.5 169t157.5 56q126 0 209 -128l-151 -164q-75 129 -164 129q-79 0 -223 -131q-4 -3 -21 -18v-572q0 -125 38.5 -163t163.5 -38h15v-63h-597z" />
<glyph unicode="s" horiz-adv-x="993" d="M109 326h80l3 -20q43 -275 282 -275q103 0 177 64.5t74 154.5q0 56 -38 99q-38 42 -184 121l-95 52q-272 149 -272 332q0 136 100 215t271 79q145 0 318 -63v-232h-80l-3 19q-7 48 -19 82.5t-34.5 61t-63.5 48.5t-121 22q-84 0 -137.5 -48.5t-53.5 -124.5 q0 -111 211 -228l105 -58q154 -85 213 -157q58 -73 58 -178q0 -146 -117 -234.5t-309 -88.5q-202 0 -341 75z" />
<glyph unicode="t" horiz-adv-x="838" d="M31 1040l369 361v-284h357v-77h-357v-594q0 -197 52.5 -286.5t168.5 -89.5q62 0 170 59v-90q-124 -70 -260 -70q-171 0 -244 102t-73 342v627h-183z" />
<glyph unicode="u" horiz-adv-x="1412" d="M47 993v15l372 140v-672q0 -217 46 -288.5t160 -71.5q92 0 163.5 30t189.5 118v442q0 145 -19.5 184.5t-109.5 77.5l-57 25v15l372 140v-884q0 -83 39 -112.5t147 -29.5h8v-60l-380 -93v220q-101 -110 -206.5 -165t-215.5 -55q-167 0 -245 107q-78 106 -78 334v293 q0 148 -19 187.5t-110 77.5z" />
<glyph unicode="v" horiz-adv-x="1257" d="M0 1055v62h465v-62h-18q-98 0 -98 -49q0 -33 55 -149l300 -631l262 630q43 100 43 137q0 62 -108 62h-17v62h373v-62h-15q-47 0 -82.5 -42t-85.5 -157l-386 -887h-67l-426 886q-64 127 -97 163.5t-83 36.5h-15z" />
<glyph unicode="w" horiz-adv-x="1691" d="M0 1055v62h427v-62h-13q-109 0 -109 -66q0 -18 9 -47q10 -34 11 -40q13 -48 15 -53l206 -597l303 865h64l359 -870l183 602q29 98 29 142q0 64 -88 64h-15v62h310v-62h-15q-74 0 -139 -206l-277 -880h-63l-365 897l-318 -897h-66l-304 881q-69 205 -131 205h-13z" />
<glyph unicode="x" horiz-adv-x="1171" d="M16 0v62h23q72 0 233 195l225 272l-236 318q-108 145 -139.5 176.5t-66.5 31.5h-16v62h427v-62h-16q-62 0 -62 -38q0 -25 109 -171l127 -171l142 170q119 142 119 176t-63 34h-15v62h326v-62h-16q-47 0 -98.5 -42.5t-152.5 -165.5l-193 -235l267 -358q143 -192 217 -192 h15v-62h-458v62h15q63 0 63 43q0 34 -87 150l-157 210l-171 -207q-105 -129 -105 -159q0 -37 62 -37h16v-62h-334z" />
<glyph unicode="y" horiz-adv-x="1303" d="M16 -442l98 173q75 -18 133 -18q118 0 206 62t146 186l35 74l-392 818q-64 126 -98 164t-82 38h-15v62h465v-62h-18q-98 0 -98 -50q0 -32 56 -152l284 -604l286 604q50 104 50 136q0 66 -100 66h-10v62h342v-62h-14q-50 0 -83.5 -38.5t-94.5 -165.5l-455 -942 q-68 -142 -108 -195t-121 -111q-114 -68 -249 -68q-76 0 -163 23z" />
<glyph unicode="z" horiz-adv-x="1117" d="M101 0v62l651 1001h-203q-238 0 -286 -40q-57 -48 -74 -137l-3 -17h-75l32 248h835v-54l-650 -1001h265q178 0 247 39.5t88 151.5l3 19h85l-34 -272h-881z" />
<glyph unicode="{" horiz-adv-x="915" d="M209 598v85h78q162 0 162 121q0 82 -43 184l-41 95q-55 130 -55 225q0 135 108 233t272 112v-41q-99 -19 -166 -87.5t-67 -150.5q0 -56 45 -179l30 -83q50 -139 50 -201q0 -146 -172 -271q172 -123 172 -274q0 -58 -50 -197l-30 -83q-45 -123 -45 -177q0 -83 67 -152 t166 -88v-41q-164 14 -272 112t-108 233q0 95 55 225l41 95q44 102 44 183q0 122 -163 122h-78z" />
<glyph unicode="|" horiz-adv-x="504" d="M171 -47v1645h163v-1645h-163z" />
<glyph unicode="}" horiz-adv-x="915" d="M225 -331q99 19 166 87.5t67 150.5q0 56 -45 179l-30 83q-50 139 -50 201q0 146 172 270q-172 124 -172 275q0 58 50 197l30 83q45 123 45 177q0 83 -67 152t-166 88v41q164 -14 272 -112t108 -233q0 -95 -55 -225l-41 -95q-44 -102 -44 -183q0 -122 163 -122h78v-85h-78 q-163 0 -163 -121q0 -82 44 -184l41 -95q55 -130 55 -225q0 -135 -108 -233t-272 -112v41z" />
<glyph unicode="~" d="M124 396v17q0 138 81.5 235t197.5 97q91 0 259 -103l75 -46q177 -107 249 -107q62 0 120 69t58 144v12h77v-19q0 -136 -85 -233t-205 -97q-93 0 -248 99l-78 50q-167 107 -239 107q-69 0 -126.5 -64.5t-57.5 -141.5v-19h-78z" />
<glyph unicode="&#xa2;" d="M171 767q0 246 140 405t380 187v348h77v-348q76 0 189.5 -20t166.5 -43l32 -295h-77l-5 13q-88 250 -306 282v-1001q51 -2 80 -2q132 0 285 53v-90q-181 -71 -365 -71v-340h-77v340q-250 35 -385 186t-135 396zM388 765q0 -386 303 -455v986q-139 -18 -221 -161t-82 -370 z" />
<glyph unicode="&#xa3;" d="M155 0v163q191 51 264 421l45 231h-185v77h202l21 107q65 334 163.5 466.5t279.5 132.5q167 0 257 -133l-116 -140q-23 94 -70.5 152.5t-101.5 58.5q-74 0 -116 -89.5t-94 -353.5l-39 -201h328v-77h-343l-20 -104q-41 -205 -107 -308t-244 -240h838v-163h-962z" />
<glyph unicode="&#xa5;" d="M23 1489v63h496v-63h-21q-72 0 -72 -49q0 -46 60 -150l277 -486l262 486q53 99 53 138q0 61 -90 61h-19v63h373v-63h-22q-75 0 -112 -33t-110 -167l-307 -560h349v-77h-357v-156h357v-77h-357v-155q0 -126 38 -164t163 -38h15v-62h-618v62h16q124 0 162 38t38 164v155 h-349v77h349v156h-349v77h341l-330 561q-117 199 -221 199h-15z" />
<glyph unicode="&#xa8;" horiz-adv-x="1303" d="M334 1392q0 44 30.5 74.5t74.5 30.5q43 0 73.5 -30.5t30.5 -74.5q0 -43 -30.5 -73.5t-73.5 -30.5q-44 0 -74.5 30.5t-30.5 73.5zM761 1392q0 44 30.5 74.5t73.5 30.5q44 0 74.5 -30.5t30.5 -74.5q0 -43 -30.5 -73.5t-74.5 -30.5q-43 0 -73.5 30.5t-30.5 73.5z" />
<glyph unicode="&#xa9;" horiz-adv-x="1815" d="M85 775q0 341 240.5 582t581.5 241t582 -241t241 -582q0 -340 -241 -581t-582 -241t-581.5 241t-240.5 581zM163 775q0 -308 217.5 -526t526.5 -218t527 218t218 526q0 309 -218 527t-527 218q-308 0 -526 -218t-218 -527zM451 772q0 236 134.5 380t356.5 144 q184 0 300 -34l23 -230h-70l-3 17q-43 184 -245 184q-137 0 -227.5 -137t-90.5 -343q0 -191 95.5 -317t240.5 -126q199 0 235 206l3 19h62l-23 -232q-154 -55 -292 -55q-229 0 -364 142t-135 382z" />
<glyph unicode="&#xab;" horiz-adv-x="1109" d="M85 528v62l435 403h61l-303 -434l303 -435h-61zM535 528v62l435 403h61l-303 -434l303 -435h-61z" />
<glyph unicode="&#xad;" horiz-adv-x="776" d="M78 559v139h621v-139h-621z" />
<glyph unicode="&#xae;" horiz-adv-x="1815" d="M85 775q0 341 240.5 582t581.5 241t582 -241t241 -582q0 -340 -241 -581t-582 -241t-581.5 241t-240.5 581zM163 775q0 -308 217.5 -526t526.5 -218t527 218t218 526q0 309 -218 527t-527 218q-308 0 -526 -218t-218 -527zM519 281v63h26q59 0 76.5 21.5t17.5 95.5v656 q0 74 -17.5 95.5t-76.5 21.5h-26v63h391q185 0 262.5 -48.5t77.5 -163.5q0 -104 -55.5 -178t-166.5 -117q48 -31 141 -177l65 -104q104 -165 147 -165h23v-63h-217l-287 471h-101v-291q0 -68 15.5 -93t59.5 -25q10 0 35 2l5 -64h-395zM799 815h126q80 25 120 85.5t40 156.5 q0 89 -61.5 133t-185.5 44h-39v-419z" />
<glyph unicode="&#xb4;" horiz-adv-x="1303" d="M357 1288l293 326h219l-426 -326h-86z" />
<glyph unicode="&#xb8;" horiz-adv-x="1303" d="M489 -347q66 -26 106 -26q52 0 77.5 20.5t25.5 61.5q0 85 -165 103l101 188h79l-79 -144q196 -18 196 -152q0 -69 -45.5 -104t-136.5 -35t-159 27v61z" />
<glyph unicode="&#xbb;" horiz-adv-x="1109" d="M78 124l303 435l-303 434h62l434 -403v-62l-434 -404h-62zM528 124l303 435l-303 434h62l434 -403v-62l-434 -404h-62z" />
<glyph unicode="&#x2c6;" horiz-adv-x="1303" d="M372 1288l248 326h62l249 -326h-63l-217 170l-217 -170h-62z" />
<glyph unicode="&#x2da;" horiz-adv-x="1303" d="M481 1458q0 71 50 121t121 50q70 0 120 -50t50 -121q0 -70 -50 -120t-120 -50q-71 0 -121 50t-50 120zM543 1458q0 -44 32 -76t77 -32q44 0 76 32t32 76q0 45 -31.5 77t-76.5 32t-77 -32t-32 -77z" />
<glyph unicode="&#x2dc;" horiz-adv-x="1303" d="M341 1288q0 118 46.5 187t126.5 69q56 0 118 -39l42 -27q80 -51 125 -51q87 0 99 117h64q0 -120 -47 -188t-130 -68q-59 0 -136 48l-43 27q-62 41 -99 41q-91 0 -103 -116h-63z" />
<glyph unicode="&#x2000;" horiz-adv-x="853" />
<glyph unicode="&#x2001;" horiz-adv-x="1707" />
<glyph unicode="&#x2002;" horiz-adv-x="853" />
<glyph unicode="&#x2003;" horiz-adv-x="1707" />
<glyph unicode="&#x2004;" horiz-adv-x="569" />
<glyph unicode="&#x2005;" horiz-adv-x="426" />
<glyph unicode="&#x2006;" horiz-adv-x="284" />
<glyph unicode="&#x2007;" horiz-adv-x="284" />
<glyph unicode="&#x2008;" horiz-adv-x="213" />
<glyph unicode="&#x2009;" horiz-adv-x="341" />
<glyph unicode="&#x200a;" horiz-adv-x="94" />
<glyph unicode="&#x2010;" horiz-adv-x="776" d="M78 559v139h621v-139h-621z" />
<glyph unicode="&#x2011;" horiz-adv-x="776" d="M78 559v139h621v-139h-621z" />
<glyph unicode="&#x2012;" horiz-adv-x="776" d="M78 559v139h621v-139h-621z" />
<glyph unicode="&#x2013;" horiz-adv-x="1055" d="M62 574v109h931v-109h-931z" />
<glyph unicode="&#x2014;" horiz-adv-x="2110" d="M62 574v109h1986v-109h-1986z" />
<glyph unicode="&#x2018;" horiz-adv-x="621" d="M144 1190q0 260 322 455v-66q-156 -100 -169 -315l169 -86q-22 -170 -169 -170q-67 0 -110 51.5t-43 130.5z" />
<glyph unicode="&#x2019;" horiz-adv-x="621" d="M155 1008v67q156 99 169 314l-169 86q22 170 169 170q67 0 110 -51t43 -131q0 -260 -322 -455z" />
<glyph unicode="&#x201a;" horiz-adv-x="621" d="M155 94q22 170 169 170q67 0 110 -51t43 -130q0 -261 -322 -455v66q156 99 169 314z" />
<glyph unicode="&#x201c;" horiz-adv-x="1086" d="M171 1190q0 260 322 455v-66q-156 -100 -169 -315l169 -86q-22 -170 -169 -170q-67 0 -110 51.5t-43 130.5zM593 1190q0 260 323 455v-66q-156 -100 -170 -315l170 -86q-22 -170 -170 -170q-66 0 -109.5 51.5t-43.5 130.5z" />
<glyph unicode="&#x201d;" horiz-adv-x="1086" d="M171 1008v67q156 99 169 314l-169 86q22 170 169 170q67 0 110 -51t43 -131q0 -260 -322 -455zM594 1008v67q156 99 169 314l-169 86q22 170 169 170q67 0 110 -51t43 -131q0 -260 -322 -455z" />
<glyph unicode="&#x201e;" horiz-adv-x="1086" d="M171 94q22 170 169 170q67 0 110 -51t43 -130q0 -261 -322 -455v66q156 99 169 314zM594 94q22 170 169 170q67 0 110 -51t43 -130q0 -261 -322 -455v66q156 99 169 314z" />
<glyph unicode="&#x2022;" d="M256 768q0 177 125 302t302 125t301.5 -125t124.5 -302t-124.5 -302t-301.5 -125t-302 125t-125 302z" />
<glyph unicode="&#x2026;" horiz-adv-x="2110" d="M198 109q0 65 45 110t110 45q66 0 110.5 -45t44.5 -110q0 -66 -44.5 -111t-110.5 -45q-65 0 -110 45t-45 111zM900 109q0 65 45 110t110 45q66 0 110.5 -45t44.5 -110q0 -66 -44.5 -111t-110.5 -45q-65 0 -110 45t-45 111zM1602 109q0 65 45 110t110 45q66 0 110.5 -45 t44.5 -110q0 -66 -44.5 -111t-110.5 -45q-65 0 -110 45t-45 111z" />
<glyph unicode="&#x202f;" horiz-adv-x="341" />
<glyph unicode="&#x2039;" horiz-adv-x="659" d="M85 528v62l435 403h61l-303 -434l303 -435h-61z" />
<glyph unicode="&#x203a;" horiz-adv-x="659" d="M78 124l303 435l-303 434h62l434 -403v-62l-434 -404h-62z" />
<glyph unicode="&#x205f;" horiz-adv-x="426" />
<glyph unicode="&#x2122;" horiz-adv-x="1831" d="M78 1360l22 192h646l22 -192h-70l-3 23q-9 61 -38 80.5t-108 19.5h-60v-565q0 -53 14 -67t67 -14h23v-61h-340v61h23q53 0 67 14t14 67v565h-60q-79 0 -108 -19.5t-38 -80.5l-3 -23h-70zM840 776v61h22q44 0 55.5 14t11.5 67v491q0 53 -11.5 67.5t-55.5 14.5h-22v61h198 l267 -516l245 516h204v-61h-23q-43 0 -55 -14.5t-12 -67.5v-491q0 -53 12 -67t55 -14h23v-61h-303v61h25q44 0 56 14t12 67v472l-268 -561l-267 517v-428q0 -53 11.5 -67t55.5 -14h22v-61h-258z" />
<glyph unicode="&#x25fc;" horiz-adv-x="1115" d="M0 0v1115h1115v-1115h-1115z" />
</font>
</defs>
</svg>
